<svg xmlns="http://www.w3.org/2000/svg" viewBox="0 0 421.197 314">
  <g fill="none">
    <path d="M.128 73.836V0h18.148v57.659h31.007v16.177zm103.535 0-3.422-10.992H77.53L73.9 73.836H54.922L81.782 0h14l26.859 73.836h-18.978zM89.248 28l-6.637 19.703h12.86L89.248 28zM171.9 73.836l-23.645-37.125v37.125h-18.148V0h15.866l23.645 37.126V0h18.148v73.836zm80.057-12.444c-5.082 8.192-12.86 12.444-23.955 12.444h-27.378V0h27.378c11.096 0 18.873 4.252 23.955 12.444 3.63 5.911 3.63 11.719 3.63 24.474 0 12.756 0 18.563-3.63 24.474zm-16.489-41.066c-1.659-2.49-4.148-4.148-8.71-4.148h-7.986v41.48h7.985c4.563 0 7.052-1.659 8.711-4.147 1.452-2.074 1.97-4.045 1.97-16.593 0-12.444-.518-14.518-1.97-16.592zM48.704 158.676c-5.289 5.289-11.511 8.089-20.533 8.089-9.022 0-15.245-2.8-20.533-8.09-7.57-7.57-7.57-17.006-7.57-29.45 0-12.445 0-21.882 7.57-29.452 5.288-5.289 11.51-8.089 20.533-8.089 9.022 0 15.244 2.8 20.533 8.089 7.57 7.57 7.57 17.007 7.57 29.452 0 12.444 0 21.88-7.57 29.45zm-13.274-47.6c-1.348-1.762-3.94-3.214-7.26-3.214-3.318 0-5.91 1.452-7.259 3.215-1.659 2.177-2.696 4.666-2.696 18.148 0 13.48 1.037 15.866 2.696 18.044 1.349 1.763 3.941 3.318 7.26 3.318 3.318 0 5.91-1.555 7.259-3.318 1.66-2.178 2.696-4.563 2.696-18.044 0-13.482-1.037-15.97-2.696-18.148zm51.54-2.592v12.963h27.377v16.177H86.97v28.519H68.822V92.306h50.192v16.178zm94.47 0v57.659h-18.148v-57.659h-18.148V92.306h54.444v16.178zm66.161 57.659v-29.244h-19.288v29.244h-18.148V92.306h18.148v28.415H247.6V92.306h18.148v73.837zm31.006 0V92.306H328.8v16.178h-32.045v12.34h27.378v16.178h-27.378v12.963H328.8v16.178zM28.17 259.071c-9.021 0-15.244-2.8-20.532-8.088-7.57-7.57-7.57-17.008-7.57-29.452 0-12.444 0-21.881 7.57-29.452 5.288-5.288 11.51-8.088 20.533-8.088 14 0 25.2 7.777 27.896 24.059h-18.46c-1.14-4.149-3.422-7.882-9.436-7.882-3.319 0-5.808 1.348-7.156 3.111-1.66 2.178-2.8 4.77-2.8 18.252 0 13.481 1.14 16.074 2.8 18.252 1.348 1.763 3.837 3.11 7.156 3.11 6.014 0 8.296-3.733 9.437-7.88h18.459C53.37 251.292 42.17 259.07 28.17 259.07zm66.162 0c-15.348 0-27.896-10.37-27.896-26.548v-47.91h18.148v47.496c0 6.844 3.733 10.785 9.748 10.785 6.015 0 9.955-3.941 9.955-10.785v-47.496h18.148v47.91c0 16.178-12.755 26.548-28.103 26.548zm79.124-.622-13.067-27.481h-6.118v27.481h-18.148v-73.836h29.244c16.385 0 25.2 11.614 25.2 23.748 0 10.059-6.223 16.385-12.03 19.288l15.97 30.8h-21.051zm-8.919-57.555h-10.266v14.933h10.266c4.978 0 7.882-3.63 7.882-7.466 0-3.837-2.904-7.467-7.882-7.467zm39.199 57.555v-73.836h18.148v73.836zm79.331-7.466c-5.29 5.288-11.512 8.088-20.534 8.088-9.022 0-15.244-2.8-20.533-8.088-7.57-7.57-7.57-17.008-7.57-29.452 0-12.444 0-21.881 7.57-29.452 5.289-5.288 11.511-8.088 20.533-8.088 9.022 0 15.245 2.8 20.534 8.088 7.57 7.57 7.57 17.008 7.57 29.452 0 12.444 0 21.881-7.57 29.452zm-13.274-47.6c-1.348-1.763-3.941-3.215-7.26-3.215-3.318 0-5.91 1.452-7.259 3.215-1.659 2.178-2.696 4.667-2.696 18.148s1.037 15.866 2.696 18.044c1.348 1.763 3.941 3.319 7.26 3.319 3.318 0 5.91-1.556 7.259-3.319 1.659-2.178 2.696-4.563 2.696-18.044 0-13.481-1.037-15.97-2.696-18.148zm60.043 55.688c-15.348 0-27.896-10.37-27.896-26.548v-47.91h18.148v47.496c0 6.844 3.733 10.785 9.748 10.785 6.015 0 9.955-3.941 9.955-10.785v-47.496h18.148v47.91c0 16.178-12.755 26.548-28.103 26.548zm62.842 0c-11.303 0-20.533-2.074-28-9.748l11.615-11.614c3.837 3.837 10.578 5.185 16.489 5.185 7.155 0 10.578-2.385 10.578-6.637 0-1.763-.415-3.215-1.452-4.356-.934-.933-2.49-1.66-4.874-1.97l-8.919-1.245c-6.533-.933-11.51-3.11-14.83-6.533-3.421-3.526-5.08-8.503-5.08-14.83 0-13.48 10.162-23.332 26.962-23.332 10.578 0 18.563 2.488 24.889 8.814l-11.408 11.408c-3.837-3.837-8.088-4.356-14-4.356-6.325 0-8.918 3.63-8.918 6.844a4.862 4.862 0 0 0 1.452 3.422c.933.934 2.489 1.867 5.082 2.178l8.918 1.245c6.637.933 11.407 3.007 14.518 6.118 3.941 3.837 5.497 9.333 5.497 16.178 0 15.037-12.963 23.23-28.519 23.23z" fill="#FFF"/>
    <path fill="#23B900" d="M0 314v-18.233h122.62V314z"/>
  </g>
</svg>
