<svg width="420" height="146" xmlns="http://www.w3.org/2000/svg">
    <g fill="none" fill-rule="evenodd">
        <path fill="#FFF" d="M135.002 72.631V24.368h9.422v39.858h21.896v8.405zM187.957 73.038c-9.896 0-17.76-6.711-17.76-16.947V24.368h9.422v31.384c0 5.559 3.255 8.88 8.338 8.88 5.084 0 8.406-3.321 8.406-8.88V24.368h9.355V56.09c0 10.236-7.864 16.947-17.76 16.947M232.453 32.772v39.86h-9.422v-39.86h-12.608v-8.404h34.638v8.404zM152.762 133.458c-9.897 0-17.76-6.709-17.76-16.945V84.788h9.422v31.386c0 5.559 3.254 8.88 8.338 8.88 5.083 0 8.405-3.321 8.405-8.88V84.788h9.355v31.725c0 10.236-7.864 16.945-17.76 16.945M197.963 133.052v-21.353c0-4.813-3.051-6.44-5.83-6.44-2.78 0-5.898 1.627-5.898 6.44v21.353h-8.812V97.735h8.61v3.254c2.304-2.44 5.558-3.661 8.811-3.661 3.525 0 6.372 1.153 8.338 3.12 2.846 2.846 3.593 6.167 3.593 10.03v22.574h-8.812zM213.372 133.052h8.812v-34.3h-8.812v34.3zm-.136-41.35h9.015v-7.185h-9.015v7.185zM245.373 133.052h-6.914l-13.015-35.317h9.286l7.185 21.828 7.118-21.828h9.287zM279.911 108.31c-.95-2.102-2.915-3.66-5.897-3.66-2.984 0-4.95 1.558-5.897 3.66-.61 1.288-.747 2.237-.814 3.796h13.422c-.07-1.559-.204-2.508-.814-3.796zm-12.608 9.829c0 4.61 2.71 7.864 7.726 7.864 3.865 0 5.763-1.153 7.999-3.322l5.356 5.22c-3.593 3.66-7.05 5.557-13.422 5.557-8.338 0-16.336-3.794-16.336-18.098 0-11.524 6.236-18.031 15.388-18.031 9.828 0 15.387 7.05 15.387 17.081v3.729h-22.098zM313.838 107.361c-1.356-1.356-2.509-2.102-4.677-2.102-2.712 0-5.694 2.034-5.694 6.508v21.284h-8.812V97.736h8.609v3.389c1.694-2.034 5.083-3.796 8.879-3.796 3.458 0 5.897.88 8.338 3.322l-6.643 6.71zM333.301 133.458c-5.558 0-10.507-.608-15.049-5.082l5.763-5.764c2.846 2.915 6.71 3.322 9.422 3.322 3.05 0 6.235-1.016 6.235-3.66 0-1.762-.88-2.983-3.727-3.254l-5.695-.542c-6.235-.61-10.167-3.39-10.167-9.897 0-7.387 6.44-11.252 13.625-11.252 5.559 0 10.1 1.017 13.489 4.135l-5.422 5.49c-2.034-1.83-5.085-2.371-8.203-2.371-3.525 0-5.015 1.627-5.015 3.389 0 1.763 1.016 2.779 3.66 3.05l5.557.542c6.983.678 10.508 4.339 10.508 10.37 0 7.796-6.643 11.524-14.981 11.524M352.906 133.052h8.812v-34.3h-8.812v34.3zm-.136-41.35h9.015v-7.185h-9.015v7.185zM379.803 133.052c-7.185 0-10.236-5.084-10.236-10.1v-17.488h-3.728v-6.712h3.728V88.314h8.812v10.438h6.237v6.712h-6.237v16.947c0 2.032.949 3.185 3.051 3.185h3.186v7.456h-4.813zM404.884 138.746c-.746 1.966-1.56 3.457-2.644 4.541-2.034 2.034-4.677 2.713-7.592 2.713h-3.458v-7.931h2.034c2.508 0 3.525-.61 4.406-3.186l1.491-4.339-12.065-32.809h9.286l7.321 21.829 7.05-21.829H420l-15.116 41.011z"/>
        <path d="M19.85 58.092 89.64 133.53l.067-.065 13.408-12.596-9.196-9.814 14.95-14.057-12.507-13.515L81.414 97.54 32.335 44.49c-7.95-9.397-13.086-19.707-3.319-33.81L19.342.222C7.81 11.282.432 37.101 19.85 58.092" fill="#ED174D"/>
        <path d="m23.98 123.565-10.398 9.778c11.034 11.553 36.545 18.877 57.297-.632l6.028-5.663L64.4 113.533l-7.015 6.595c-9.293 7.988-19.485 13.147-33.403 3.437" fill="#23B900"/>
        <path d="M52.112 35.65 14.096 71.382c-20.92 19.66-15.2 46.096-4.364 57.86l10.338-9.72c-8.942-14.866-3.083-24.837 5.54-33.693l39.006-36.664L52.112 35.65z" fill="#FF8621"/>
    </g>
</svg>
